<svg width="136" height="50" viewBox="0 0 136 50" fill="none" xmlns="http://www.w3.org/2000/svg">
<path d="M65 12.75C63.48 12.75 62.25 11.52 62.25 10C62.25 8.48 63.48 7.25 65 7.25C66.52 7.25 67.75 8.48 67.75 10C67.75 11.52 66.52 12.75 65 12.75ZM65 8.75C64.31 8.75 63.75 9.31 63.75 10C63.75 10.69 64.31 11.25 65 11.25C65.69 11.25 66.25 10.69 66.25 10C66.25 9.31 65.69 8.75 65 8.75Z" fill="#343A40"/>
<path d="M71 24.75H65C59.57 24.75 57.25 22.43 57.25 17V11C57.25 5.57 59.57 3.25 65 3.25H69C69.41 3.25 69.75 3.59 69.75 4C69.75 4.41 69.41 4.75 69 4.75H65C60.39 4.75 58.75 6.39 58.75 11V17C58.75 21.61 60.39 23.25 65 23.25H71C75.61 23.25 77.25 21.61 77.25 17V12C77.25 11.59 77.59 11.25 78 11.25C78.41 11.25 78.75 11.59 78.75 12V17C78.75 22.43 76.43 24.75 71 24.75Z" fill="#343A40"/>
<path d="M74 10.7499C73.59 10.7499 73.25 10.4099 73.25 9.99994V3.99994C73.25 3.69994 73.43 3.41994 73.71 3.30994C73.99 3.19994 74.31 3.25994 74.53 3.46994L76.53 5.46994C76.82 5.75994 76.82 6.23994 76.53 6.52994C76.24 6.81994 75.76 6.81994 75.47 6.52994L74.75 5.80994V9.99994C74.75 10.4099 74.41 10.7499 74 10.7499Z" fill="#343A40"/>
<path d="M72.0004 6.74994C71.8104 6.74994 71.6204 6.67994 71.4704 6.52994C71.1804 6.23994 71.1804 5.75994 71.4704 5.46994L73.4704 3.46994C73.7604 3.17994 74.2404 3.17994 74.5304 3.46994C74.8204 3.75994 74.8204 4.23994 74.5304 4.52994L72.5304 6.52994C72.3804 6.67994 72.1904 6.74994 72.0004 6.74994Z" fill="#343A40"/>
<path d="M58.6703 21.7001C58.4303 21.7001 58.1903 21.5801 58.0503 21.3701C57.8203 21.0301 57.9103 20.5601 58.2503 20.3301L63.1803 17.0201C64.2603 16.3001 65.7503 16.3801 66.7303 17.2101L67.0603 17.5001C67.5603 17.9301 68.4103 17.9301 68.9003 17.5001L73.0603 13.9301C74.1203 13.0201 75.7903 13.0201 76.8603 13.9301L78.4903 15.3301C78.8003 15.6001 78.8403 16.0701 78.5703 16.3901C78.3003 16.7001 77.8203 16.7401 77.5103 16.4701L75.8803 15.0701C75.3803 14.6401 74.5403 14.6401 74.0403 15.0701L69.8803 18.6401C68.8203 19.5501 67.1503 19.5501 66.0803 18.6401L65.7503 18.3501C65.2903 17.9601 64.5303 17.9201 64.0203 18.2701L59.1003 21.5801C58.9603 21.6601 58.8103 21.7001 58.6703 21.7001Z" fill="#343A40"/>
<path d="M17.046 38.622C17.046 38.9487 17.13 39.2567 17.298 39.546C17.466 39.826 17.7227 40.1807 18.068 40.61C18.5067 41.1513 18.8427 41.632 19.076 42.052C19.3093 42.472 19.426 42.9573 19.426 43.508C19.426 44.0493 19.2953 44.5253 19.034 44.936C18.782 45.3373 18.4367 45.65 17.998 45.874C17.5593 46.0887 17.0647 46.196 16.514 46.196C15.898 46.196 15.3707 46.0747 14.932 45.832C14.5027 45.5893 14.176 45.2767 13.952 44.894C13.7373 44.502 13.63 44.082 13.63 43.634C13.63 43.1113 13.7607 42.612 14.022 42.136L15.114 42.43C14.9927 42.794 14.932 43.1813 14.932 43.592C14.932 44.068 15.072 44.4507 15.352 44.74C15.632 45.02 16.0193 45.16 16.514 45.16C17.0367 45.16 17.424 45.006 17.676 44.698C17.9373 44.39 18.068 43.984 18.068 43.48C18.068 43.06 17.9793 42.7007 17.802 42.402C17.634 42.094 17.3633 41.716 16.99 41.268C16.7193 40.9507 16.5 40.68 16.332 40.456C16.1733 40.2227 16.038 39.9567 15.926 39.658C15.814 39.35 15.758 39.0047 15.758 38.622H17.046ZM21.0868 43.718C21.0868 42.178 21.4088 40.96 22.0528 40.064C22.6968 39.1587 23.5834 38.6267 24.7128 38.468C24.6661 38.048 24.6428 37.544 24.6428 36.956H25.9308C25.9494 37.516 25.9261 38.02 25.8608 38.468C26.9994 38.608 27.8908 39.1213 28.5348 40.008C29.1881 40.8947 29.5148 42.1267 29.5148 43.704C29.5148 44.8333 29.3374 45.7947 28.9828 46.588C28.6374 47.3907 28.1474 47.9973 27.5128 48.408C26.8781 48.8187 26.1408 49.024 25.3008 49.024C24.4608 49.024 23.7234 48.8233 23.0888 48.422C22.4634 48.0207 21.9734 47.4233 21.6188 46.63C21.2641 45.8367 21.0868 44.866 21.0868 43.718ZM22.4728 43.718C22.4728 45.202 22.7248 46.2847 23.2288 46.966C23.7328 47.6473 24.4234 47.988 25.3008 47.988C27.1861 47.988 28.1287 46.56 28.1287 43.704C28.1287 42.36 27.9374 41.352 27.5548 40.68C27.1721 39.9987 26.6028 39.5833 25.8468 39.434C25.9028 39.658 25.9308 39.9333 25.9308 40.26V43.592L24.6428 43.732V40.288C24.6428 39.9427 24.6708 39.6627 24.7268 39.448C23.9894 39.5973 23.4294 40.0127 23.0468 40.694C22.6641 41.3753 22.4728 42.3833 22.4728 43.718ZM35.151 43.102C35.739 43.2047 36.2336 43.4987 36.635 43.984C37.0456 44.46 37.251 45.1133 37.251 45.944C37.251 46.5133 37.125 47.0313 36.873 47.498C36.6303 47.9647 36.271 48.3333 35.795 48.604C35.319 48.884 34.7636 49.024 34.129 49.024C33.4663 49.024 32.9063 48.898 32.449 48.646C31.9916 48.4033 31.651 48.0767 31.427 47.666C31.2123 47.2553 31.105 46.8027 31.105 46.308C31.105 46.0187 31.1376 45.7527 31.203 45.51C31.2776 45.258 31.385 45.0013 31.525 44.74L32.617 45.034C32.477 45.4727 32.407 45.888 32.407 46.28C32.407 46.8027 32.5516 47.218 32.841 47.526C33.1396 47.834 33.569 47.988 34.129 47.988C34.745 47.988 35.193 47.7873 35.473 47.386C35.753 46.9847 35.893 46.4527 35.893 45.79C35.893 45.1833 35.7436 44.684 35.445 44.292C35.1463 43.8907 34.6983 43.69 34.101 43.69H33.513L33.597 42.654H34.129C34.549 42.654 34.9036 42.514 35.193 42.234C35.4916 41.9447 35.641 41.5433 35.641 41.03C35.641 40.582 35.5103 40.2133 35.249 39.924C34.9876 39.6347 34.6003 39.49 34.087 39.49C33.5736 39.49 33.1816 39.63 32.911 39.91C32.6496 40.1807 32.519 40.5307 32.519 40.96C32.519 41.2027 32.561 41.492 32.645 41.828L31.483 42.038C31.3056 41.6553 31.217 41.268 31.217 40.876C31.217 40.4187 31.3383 40.008 31.581 39.644C31.833 39.2707 32.1736 38.9813 32.603 38.776C33.0416 38.5613 33.5363 38.454 34.087 38.454C34.647 38.454 35.1463 38.566 35.585 38.79C36.0236 39.0047 36.3643 39.3033 36.607 39.686C36.8496 40.0593 36.971 40.4793 36.971 40.946C36.971 41.5247 36.803 41.996 36.467 42.36C36.1403 42.724 35.7016 42.9713 35.151 43.102ZM38.8465 41.926C38.8465 41.2447 38.9678 40.6427 39.2105 40.12C39.4532 39.5973 39.7985 39.1913 40.2465 38.902C40.7038 38.6033 41.2405 38.454 41.8565 38.454C42.7898 38.454 43.5178 38.7667 44.0405 39.392C44.5725 40.0173 44.8385 40.862 44.8385 41.926C44.8385 42.7007 44.7545 43.4193 44.5865 44.082C44.4278 44.7353 44.2178 45.3747 43.9565 46H42.6825C42.9625 45.2533 43.1725 44.5533 43.3125 43.9C43.4618 43.2373 43.5365 42.5793 43.5365 41.926C43.5365 41.114 43.3872 40.5073 43.0885 40.106C42.7898 39.6953 42.3792 39.49 41.8565 39.49C41.3245 39.49 40.9045 39.6953 40.5965 40.106C40.2978 40.5073 40.1485 41.114 40.1485 41.926C40.1485 42.5793 40.2185 43.2373 40.3585 43.9C40.5078 44.5533 40.7225 45.2533 41.0025 46H39.7285C39.4672 45.3747 39.2525 44.7353 39.0845 44.082C38.9258 43.4193 38.8465 42.7007 38.8465 41.926ZM47.4251 46C47.1638 45.356 46.9538 44.7027 46.7951 44.04C46.6458 43.368 46.5711 42.584 46.5711 41.688C46.5711 40.1947 46.8091 39.0327 47.2851 38.202C47.7611 37.3713 48.5311 36.7787 49.5951 36.424C49.8658 36.34 50.3418 36.2187 51.0231 36.06C51.4898 35.9667 51.8678 35.878 52.1571 35.794C52.4558 35.71 52.7031 35.6073 52.8991 35.486L53.4451 36.452C53.1838 36.6013 52.8945 36.7227 52.5771 36.816C52.2691 36.9 51.8771 36.9887 51.4011 37.082C50.7758 37.2033 50.2671 37.3293 49.8751 37.46C49.4365 37.6093 49.0211 37.8427 48.6291 38.16C48.2371 38.4773 47.9525 38.9207 47.7751 39.49C48.0085 39.154 48.2465 38.9253 48.4891 38.804C48.7411 38.6827 49.0165 38.622 49.3151 38.622C50.2765 38.622 50.8785 39.168 51.1211 40.26C51.3358 39.168 51.9845 38.622 53.0671 38.622C53.5431 38.622 53.9771 38.7433 54.3691 38.986C54.7611 39.2193 55.0691 39.5787 55.2931 40.064C55.5265 40.54 55.6431 41.128 55.6431 41.828C55.6431 42.6587 55.5638 43.4007 55.4051 44.054C55.2465 44.7073 55.0365 45.356 54.7751 46H53.4871C53.7951 45.188 54.0145 44.4693 54.1451 43.844C54.2758 43.2187 54.3411 42.5513 54.3411 41.842C54.3411 41.0487 54.2058 40.4887 53.9351 40.162C53.6738 39.826 53.3471 39.658 52.9551 39.658C52.1338 39.658 51.7231 40.2133 51.7231 41.324V43.592L50.4911 43.732V41.324C50.4911 40.6987 50.3838 40.2647 50.1691 40.022C49.9638 39.7793 49.6745 39.658 49.3011 39.658C48.3491 39.658 47.8731 40.4233 47.8731 41.954C47.8731 42.626 47.9338 43.27 48.0551 43.886C48.1858 44.502 48.4005 45.2067 48.6991 46H47.4251ZM64.5676 38.454C65.4169 38.454 66.0842 38.7527 66.5696 39.35C67.0549 39.9473 67.2976 40.82 67.2976 41.968C67.2976 42.7333 67.2182 43.438 67.0596 44.082C66.9009 44.7167 66.6909 45.356 66.4296 46H65.1416C65.4402 45.1973 65.6549 44.488 65.7856 43.872C65.9256 43.256 65.9956 42.626 65.9956 41.982C65.9956 41.086 65.8602 40.4467 65.5896 40.064C65.3189 39.6813 64.9409 39.49 64.4556 39.49C63.8862 39.49 63.3869 39.7047 62.9576 40.134C63.2189 40.7407 63.3496 41.464 63.3496 42.304C63.3496 43.4893 63.0836 44.432 62.5516 45.132C62.0289 45.8227 61.3009 46.168 60.3676 46.168C59.4249 46.168 58.6922 45.8273 58.1696 45.146C57.6469 44.4647 57.3856 43.522 57.3856 42.318C57.3856 41.1327 57.6516 40.1947 58.1836 39.504C58.7156 38.804 59.4482 38.454 60.3816 38.454C61.2589 38.454 61.9589 38.7573 62.4816 39.364C63.0416 38.7573 63.7369 38.454 64.5676 38.454ZM60.3676 45.132C60.8902 45.132 61.2916 44.8987 61.5716 44.432C61.8516 43.9653 61.9916 43.256 61.9916 42.304C61.9916 41.3613 61.8516 40.6567 61.5716 40.19C61.2916 39.7233 60.8949 39.49 60.3816 39.49C59.8589 39.49 59.4529 39.728 59.1636 40.204C58.8836 40.6707 58.7436 41.3753 58.7436 42.318C58.7436 43.2607 58.8836 43.9653 59.1636 44.432C59.4436 44.8987 59.8449 45.132 60.3676 45.132ZM71.918 38.454C72.45 38.454 72.926 38.566 73.346 38.79C73.7753 39.014 74.1067 39.336 74.34 39.756C74.5827 40.176 74.704 40.666 74.704 41.226V45.944C74.704 46.5413 74.5873 47.0733 74.354 47.54C74.13 48.0067 73.7987 48.3707 73.36 48.632C72.9307 48.8933 72.4173 49.024 71.82 49.024C71.1667 49.024 70.6207 48.8933 70.182 48.632C69.7433 48.3707 69.4167 48.0253 69.202 47.596C68.9967 47.176 68.894 46.7187 68.894 46.224C68.894 45.608 69.048 44.992 69.356 44.376L70.462 44.67C70.2847 45.1833 70.196 45.7013 70.196 46.224C70.196 46.7653 70.336 47.1947 70.616 47.512C70.896 47.8293 71.2973 47.988 71.82 47.988C72.38 47.988 72.786 47.792 73.038 47.4C73.29 47.008 73.416 46.4713 73.416 45.79V41.31C73.416 40.7593 73.2947 40.3207 73.052 39.994C72.8093 39.658 72.4313 39.49 71.918 39.49C71.4047 39.49 71.022 39.6347 70.77 39.924C70.5273 40.204 70.406 40.5493 70.406 40.96C70.406 41.324 70.4667 41.6973 70.588 42.08L69.426 42.318C69.202 41.8513 69.09 41.394 69.09 40.946C69.09 40.4607 69.216 40.0313 69.468 39.658C69.72 39.2753 70.0607 38.9813 70.49 38.776C70.9193 38.5613 71.3953 38.454 71.918 38.454ZM87.885 43.872C89.0517 44.1893 89.635 44.922 89.635 46.07C89.635 46.686 89.4763 47.2133 89.159 47.652C88.851 48.1 88.417 48.4407 87.857 48.674C87.3063 48.9073 86.6763 49.024 85.967 49.024C85.267 49.024 84.6603 48.9167 84.147 48.702C83.6337 48.4967 83.237 48.2027 82.957 47.82C82.6863 47.4373 82.551 46.994 82.551 46.49C82.551 46.3967 82.5603 46.3033 82.579 46.21L83.853 46.392V46.434C83.853 46.9847 84.0443 47.3813 84.427 47.624C84.8097 47.8667 85.323 47.988 85.967 47.988C87.4883 47.988 88.249 47.3487 88.249 46.07C88.249 45.5567 88.109 45.146 87.829 44.838C87.549 44.53 87.157 44.376 86.653 44.376H86.317L86.457 43.368H86.793C87.297 43.368 87.6983 43.1907 87.997 42.836C88.2957 42.472 88.445 41.954 88.445 41.282C88.445 40.694 88.319 40.2507 88.067 39.952C87.815 39.644 87.4883 39.49 87.087 39.49C86.555 39.49 86.0697 39.672 85.631 40.036C85.8643 40.5587 85.981 41.142 85.981 41.786C85.981 42.4207 85.8643 42.9947 85.631 43.508C85.3977 44.012 85.0617 44.4133 84.623 44.712C84.1843 45.0013 83.671 45.146 83.083 45.146C82.187 45.146 81.4823 44.838 80.969 44.222C80.4557 43.5967 80.199 42.7847 80.199 41.786C80.199 41.1607 80.311 40.596 80.535 40.092C80.7683 39.588 81.1043 39.1913 81.543 38.902C81.9817 38.6033 82.4997 38.454 83.097 38.454C83.9463 38.454 84.6277 38.734 85.141 39.294C85.673 38.734 86.345 38.454 87.157 38.454C87.6517 38.454 88.095 38.5707 88.487 38.804C88.8883 39.0373 89.201 39.3687 89.425 39.798C89.6583 40.218 89.775 40.6987 89.775 41.24C89.775 41.94 89.6023 42.5187 89.257 42.976C88.921 43.4333 88.4637 43.732 87.885 43.872ZM83.083 44.138C83.587 44.138 83.9743 43.9327 84.245 43.522C84.525 43.1113 84.665 42.5327 84.665 41.786C84.665 41.058 84.525 40.4887 84.245 40.078C83.9743 39.6673 83.5917 39.462 83.097 39.462C82.6023 39.462 82.215 39.6673 81.935 40.078C81.655 40.4887 81.515 41.058 81.515 41.786C81.515 42.5327 81.6503 43.1113 81.921 43.522C82.201 43.9327 82.5883 44.138 83.083 44.138ZM92.2962 46C92.0349 45.3653 91.8249 44.7307 91.6662 44.096C91.5169 43.452 91.4422 42.7427 91.4422 41.968C91.4422 40.7733 91.6756 39.8913 92.1422 39.322C92.6089 38.7433 93.2109 38.454 93.9482 38.454C94.5269 38.454 94.9796 38.5847 95.3062 38.846C95.6422 39.1073 95.8709 39.5227 95.9922 40.092C96.0762 39.5507 96.2862 39.1447 96.6222 38.874C96.9582 38.594 97.3876 38.454 97.9102 38.454C98.6756 38.454 99.3009 38.748 99.7862 39.336C100.272 39.9147 100.514 40.792 100.514 41.968C100.514 42.7333 100.435 43.438 100.276 44.082C100.118 44.7167 99.9076 45.356 99.6462 46H98.3582C98.6569 45.1973 98.8716 44.488 99.0022 43.872C99.1422 43.256 99.2122 42.626 99.2122 41.982C99.2122 40.3207 98.7316 39.49 97.7702 39.49C96.9862 39.49 96.5942 40.0453 96.5942 41.156V43.592L95.3622 43.732V41.156C95.3622 40.512 95.2549 40.0733 95.0402 39.84C94.8349 39.6067 94.5362 39.49 94.1442 39.49C93.6776 39.49 93.3276 39.6907 93.0942 40.092C92.8609 40.484 92.7442 41.1047 92.7442 41.954C92.7442 42.626 92.8049 43.27 92.9262 43.886C93.0569 44.502 93.2716 45.2067 93.5702 46H92.2962ZM102.257 43.718C102.257 42.178 102.579 40.96 103.223 40.064C103.867 39.1587 104.753 38.6267 105.883 38.468C105.836 38.048 105.813 37.544 105.813 36.956H107.101C107.119 37.516 107.096 38.02 107.031 38.468C108.169 38.608 109.061 39.1213 109.705 40.008C110.358 40.8947 110.685 42.1267 110.685 43.704C110.685 44.8333 110.507 45.7947 110.153 46.588C109.807 47.3907 109.317 47.9973 108.683 48.408C108.048 48.8187 107.311 49.024 106.471 49.024C105.631 49.024 104.893 48.8233 104.259 48.422C103.633 48.0207 103.143 47.4233 102.789 46.63C102.434 45.8367 102.257 44.866 102.257 43.718ZM103.643 43.718C103.643 45.202 103.895 46.2847 104.399 46.966C104.903 47.6473 105.593 47.988 106.471 47.988C108.356 47.988 109.299 46.56 109.299 43.704C109.299 42.36 109.107 41.352 108.725 40.68C108.342 39.9987 107.773 39.5833 107.017 39.434C107.073 39.658 107.101 39.9333 107.101 40.26V43.592L105.813 43.732V40.288C105.813 39.9427 105.841 39.6627 105.897 39.448C105.159 39.5973 104.599 40.0127 104.217 40.694C103.834 41.3753 103.643 42.3833 103.643 43.718ZM113.269 46C113.008 45.3653 112.798 44.7307 112.639 44.096C112.49 43.452 112.415 42.7427 112.415 41.968C112.415 40.7733 112.648 39.8913 113.115 39.322C113.582 38.7433 114.184 38.454 114.921 38.454C115.5 38.454 115.952 38.5847 116.279 38.846C116.615 39.1073 116.844 39.5227 116.965 40.092C117.049 39.5507 117.259 39.1447 117.595 38.874C117.931 38.594 118.36 38.454 118.883 38.454C119.648 38.454 120.274 38.748 120.759 39.336C121.244 39.9147 121.487 40.792 121.487 41.968C121.487 42.7333 121.408 43.438 121.249 44.082C121.09 44.7167 120.88 45.356 120.619 46H119.331C119.63 45.1973 119.844 44.488 119.975 43.872C120.115 43.256 120.185 42.626 120.185 41.982C120.185 40.3207 119.704 39.49 118.743 39.49C117.959 39.49 117.567 40.0453 117.567 41.156V43.592L116.335 43.732V41.156C116.335 40.512 116.228 40.0733 116.013 39.84C115.808 39.6067 115.509 39.49 115.117 39.49C114.65 39.49 114.3 39.6907 114.067 40.092C113.834 40.484 113.717 41.1047 113.717 41.954C113.717 42.626 113.778 43.27 113.899 43.886C114.03 44.502 114.244 45.2067 114.543 46H113.269Z" fill="#343A40"/>
</svg>
